<svg width="24" height="24" viewBox="0 0 24 24" fill="none" xmlns="http://www.w3.org/2000/svg">
<path fill-rule="evenodd" clip-rule="evenodd" d="M10.4094 1.65935C11.288 0.780705 12.7124 0.780705 13.591 1.65935L22.341 10.4093C23.2195 11.288 23.2196 12.7124 22.341 13.591L13.591 22.341C12.7124 23.2196 11.288 23.2195 10.4094 22.341L1.65938 13.591C0.780736 12.7123 0.780736 11.288 1.65938 10.4093L10.4094 1.65935ZM16.0305 7.9699C15.7376 7.677 15.2628 7.677 14.9699 7.9699L12.0002 10.9396L9.03047 7.9699C8.73758 7.677 8.26282 7.677 7.96993 7.9699C7.67703 8.26279 7.67703 8.73755 7.96993 9.03044L10.9397 12.0002L7.96993 14.9699C7.67703 15.2628 7.67703 15.7375 7.96993 16.0304C8.26283 16.3232 8.73764 16.3233 9.03047 16.0304L12.0002 13.0607L14.9699 16.0304C15.2628 16.3232 15.7376 16.3233 16.0305 16.0304C16.3233 15.7376 16.3232 15.2628 16.0305 14.9699L13.0607 12.0002L16.0305 9.03044C16.3233 8.73761 16.3232 8.2628 16.0305 7.9699Z" fill="#0A0A0A"/>
</svg>
